<svg xmlns="http://www.w3.org/2000/svg" xmlns:xlink="http://www.w3.org/1999/xlink" viewBox="0,0,256,256" width="48px" height="48px" fill-rule="nonzero"><g transform="translate(-36,-36) scale(1.28125,1.28125)"><g fill-opacity="0" fill="#dddddd" fill-rule="nonzero" stroke="none" stroke-width="1" stroke-linecap="butt" stroke-linejoin="miter" stroke-miterlimit="10" stroke-dasharray="" stroke-dashoffset="0" font-family="none" font-weight="none" font-size="none" text-anchor="none" style="mix-blend-mode: normal"><path d="M28.09756,227.90244v-199.80488h199.80488v199.80488z" id="bgRectangle"></path></g><g fill="#989898" fill-rule="nonzero" stroke="none" stroke-width="1" stroke-linecap="butt" stroke-linejoin="miter" stroke-miterlimit="10" stroke-dasharray="" stroke-dashoffset="0" font-family="none" font-weight="none" font-size="none" text-anchor="none" style="mix-blend-mode: normal"><g transform="translate(9.08,-4.024) scale(4,4)"><path d="M44.981,57.959c-3.86,0 -7,-3.14 -7,-7c0,-3.86 3.14,-7 7,-7c3.86,0 7,3.14 7,7c0,3.86 -3.141,7 -7,7zM44.981,47.959c-1.654,0 -3,1.346 -3,3c0,1.654 1.346,3 3,3c1.654,0 3,-1.346 3,-3c0,-1.654 -1.346,-3 -3,-3z"></path><path d="M13.994,40.008c-3.86,0 -7,-3.14 -7,-7c0,-3.86 3.14,-7 7,-7c3.86,0 7,3.14 7,7c0,3.86 -3.14,7 -7,7zM13.994,30.008c-1.654,0 -3,1.346 -3,3c0,1.654 1.346,3 3,3c1.654,0 3,-1.346 3,-3c0,-1.654 -1.346,-3 -3,-3z"></path><path d="M37.084,32.855l6.351,11c0.552,0.957 0.186,2.117 -0.732,2.732c-0.97,0.65 -2.361,-0.09 -2.732,-0.732l-6.351,-11h-12.702c-1.104,0 -2,-0.896 -2,-2c0,-1.104 0.896,-2 2,-2h12.701l6.452,-11.175c0.553,-0.956 1.773,-1.286 2.732,-0.732c0.957,0.552 1.284,1.775 0.732,2.732z"></path><path d="M45.466,22.053c-3.86,0 -7,-3.14 -7,-7c0,-3.86 3.14,-7 7,-7c3.86,0 7,3.14 7,7c0,3.86 -3.14,7 -7,7zM45.466,12.053c-1.654,0 -3,1.346 -3,3c0,1.654 1.346,3 3,3c1.654,0 3,-1.346 3,-3c0,-1.654 -1.346,-3 -3,-3z"></path></g></g></g></svg>